<svg width="127" height="18" viewBox="0 0 127 18" fill="none" xmlns="http://www.w3.org/2000/svg">
<g clip-path="url(#clip0_1376_9030)">
<path d="M17.5335 8.94951C17.5335 4.06646 21.5539 0.117439 26.5807 0.117439C31.6427 0.117439 35.6641 4.06866 35.6641 8.94951C35.6641 13.7963 31.6427 17.8178 26.5807 17.8178C21.5539 17.8178 17.5335 13.792 17.5335 8.94951ZM31.32 8.94951C31.32 6.50854 29.2017 4.35402 26.5807 4.35402C23.996 4.35402 21.8777 6.50854 21.8777 8.94951C21.8777 11.4267 23.996 13.5812 26.5807 13.5812C29.2061 13.5812 31.32 11.4267 31.32 8.94951ZM108.767 9.09329C108.767 3.74378 113.111 0.117439 117.061 0.117439C119.754 0.117439 121.298 0.942805 122.339 2.52329L122.752 0.437927H126.79V17.494H122.752L122.231 15.7379C121.047 17.0309 119.574 17.8233 117.061 17.8233C113.184 17.8178 108.767 14.4066 108.767 9.09329ZM122.554 9.05707C122.544 6.47484 120.417 4.35567 117.834 4.35567C115.245 4.35567 113.115 6.48615 113.115 9.07518V9.09329C113.115 11.4629 115.233 13.5812 117.819 13.5812C120.436 13.5812 122.554 11.4629 122.554 9.05707ZM103.805 2.41463V0.439024H99.3896V17.494H103.805V8.30415C103.805 5.53939 105.17 4.10378 107.537 4.10378C107.694 4.10378 107.843 4.11476 107.989 4.12902L108.808 0.0120732C106.506 0.0241463 104.838 0.813293 103.805 2.41463ZM59.434 2.41573V0.440122L55.0185 0.45L55.0559 17.5028L59.4713 17.4929L59.4472 8.30415C59.4406 5.54049 60.8027 4.10159 63.1712 4.0961C63.3222 4.09654 63.4733 4.10499 63.6234 4.12134L64.4378 0C62.1329 0.0186585 60.4624 0.811098 59.434 2.41573ZM37.1941 10.8878V0.440122H41.6085V10.35C41.6085 12.5396 42.829 13.8326 44.9473 13.8326C47.317 13.8326 48.679 12.3959 48.679 9.6311V0.440122H53.0956V17.494H48.6823V15.5184C47.6418 17.134 45.9538 17.9243 43.6204 17.9243C39.6713 17.9254 37.1941 15.053 37.1941 10.8878V10.8878ZM80.19 8.96927C80.1999 4.19378 83.6177 0.107561 89.0385 0.117439C94.0654 0.127317 97.6116 4.15427 97.5995 8.89793C97.6006 9.36692 97.5633 9.83524 97.4898 10.2984L84.4935 10.2743C84.9918 12.3212 86.6766 13.7963 89.2262 13.8018C90.7694 13.8018 92.4223 13.2333 93.4299 11.9426L96.4416 14.3572C94.8929 16.5446 92.1611 17.8321 89.2548 17.8266C84.1237 17.809 80.1812 13.9599 80.19 8.96927V8.96927ZM93.1544 7.19781C92.9063 5.47463 91.114 4.1422 88.9957 4.1389C86.9488 4.1389 85.2959 5.35281 84.6461 7.18244L93.1544 7.19781ZM64.4642 13.7766L68.389 11.722C69.0377 13.1279 70.335 13.9566 72.1734 13.9566C73.867 13.9566 74.5156 13.4166 74.5156 12.6593C74.5156 9.91537 65.2182 11.5782 65.2182 5.30561C65.2182 1.8461 68.2452 0.00878049 71.9923 0.00878049C74.8394 0.00878049 77.3616 1.26988 78.7313 3.61207L74.8416 5.67C74.2654 4.51646 73.1843 3.86781 71.8145 3.86781C70.4821 3.86781 69.8323 4.33646 69.8323 5.1289C69.8323 7.79598 79.1298 6.10244 79.1298 12.4826C79.1298 15.7983 76.4276 17.8156 72.067 17.8156C68.355 17.8123 65.7604 16.5874 64.4642 13.7766V13.7766ZM0 8.94951C0 4.03134 4.02037 0.0812195 9.0472 0.0812195C12.1145 0.0597073 14.994 1.58894 16.6939 4.1422L12.9249 6.32854C12.4886 5.70556 11.908 5.19734 11.2328 4.84722C10.5576 4.4971 9.80777 4.31546 9.0472 4.31781C6.46244 4.31781 4.34415 6.47232 4.34415 8.94951C4.34415 11.4267 6.46244 13.5812 9.0472 13.5812C9.84361 13.586 10.628 13.3867 11.3256 13.0025C12.0232 12.6182 12.6108 12.0618 13.0324 11.3861L16.7641 13.612C15.0841 16.2412 12.1651 17.83 9.045 17.8134C4.02037 17.8178 0 13.792 0 8.94951Z" fill="#0056D2"/>
</g>
<defs>
<clipPath id="clip0_1376_9030">
<rect width="126.768" height="18" fill="white"/>
</clipPath>
</defs>
</svg>
