<svg width="74" height="39" viewBox="0 0 74 39" fill="none" xmlns="http://www.w3.org/2000/svg">
<path fill-rule="evenodd" clip-rule="evenodd" d="M61.2548 22.5423C66.2039 22.558 69.9278 18.6233 69.9442 13.568C69.9606 8.5127 66.2047 4.55387 61.2548 4.53755L54.3123 4.51472V22.5193L61.2548 22.5423ZM50.2456 0.900665L61.3243 0.936896C68.6101 0.960624 74.0234 6.17208 74 13.5815C73.9774 20.5754 68.1857 26.1658 61.2429 26.1434L50.2456 26.1071V0.900665Z" fill="#033875"/>
<path fill-rule="evenodd" clip-rule="evenodd" d="M12.9428 21.9686V21.9689C8.04783 21.9689 4.07988 17.9711 4.07988 13.0396C4.07988 8.10818 8.04813 4.11042 12.9431 4.11042C17.8381 4.11042 21.806 8.10833 21.806 13.0397C21.806 17.9712 17.8378 21.9689 12.9428 21.9686ZM28.8442 26.1072L23.4191 20.6971C24.9706 18.5469 25.8862 15.9012 25.8862 13.0397C25.8862 5.83806 20.0916 0 12.9432 0H12.9428C5.79459 0 0 5.83821 0 13.0399C0 20.2413 5.79516 26.0793 12.9434 26.0792C15.7428 26.079 18.3346 25.1833 20.4523 23.6613L22.9316 26.1072H28.8442Z" fill="#033875"/>
<mask id="mask0_1789_32826" style="mask-type:alpha" maskUnits="userSpaceOnUse" x="0" y="0" width="74" height="39">
<path d="M0 38.1624H74V0H0V38.1624Z" fill="white"/>
</mask>
<g mask="url(#mask0_1789_32826)">
<path fill-rule="evenodd" clip-rule="evenodd" d="M1.54883 37.9968H2.93558V30.6293H1.54883V37.9968Z" fill="#033875"/>
<path fill-rule="evenodd" clip-rule="evenodd" d="M10.5156 30.6293H11.8503V37.9968H10.3107L8.27705 34.7175C7.68061 33.7749 7.24997 33.0302 6.97256 32.5021C7.00322 33.3722 7.01354 34.5613 7.01354 36.0722V37.998H5.67822V30.6293H7.21898L9.26281 33.9097C9.85925 34.8832 10.29 35.6171 10.5571 36.124C10.5265 34.965 10.5151 33.775 10.5151 32.5538L10.5156 30.6293Z" fill="#033875"/>
<path fill-rule="evenodd" clip-rule="evenodd" d="M20.1371 30.6293H21.575L18.956 37.9968H17.3325L14.6514 30.6293H16.1304L17.4554 34.4382C17.7431 35.3176 17.9793 36.0836 18.1547 36.7355C18.3182 36.1035 18.5447 35.3375 18.8425 34.4382L20.1371 30.6293Z" fill="#033875"/>
<path fill-rule="evenodd" clip-rule="evenodd" d="M29.5079 31.8813H25.5031V33.6206H29.128V34.8201H25.5031V36.7456H29.4876V37.998H24.1147V30.6293H29.5063L29.5079 31.8813Z" fill="#033875"/>
<path fill-rule="evenodd" clip-rule="evenodd" d="M31.8999 35.5653H33.2659C33.2761 36.6516 33.9536 37.0346 35.0743 37.0346C36.0298 37.0346 36.5536 36.6622 36.5536 35.9687C36.5536 35.3892 36.1734 35.1411 35.0541 34.9029L34.438 34.7798C32.8666 34.4794 32.0861 33.7345 32.0861 32.5448C32.0861 31.2926 33.0825 30.4644 34.7975 30.4644C36.7707 30.4644 37.725 31.3649 37.7762 32.8242H36.431C36.3796 31.996 35.9277 31.5927 34.8183 31.5927C33.9556 31.5927 33.5037 31.934 33.5037 32.5031C33.5037 33.093 33.8528 33.3726 34.9322 33.5896L35.5682 33.7134C37.2834 34.0551 37.9921 34.7077 37.9921 35.897C37.9921 37.3449 36.8837 38.1622 35.0339 38.1622C33.0604 38.1622 31.9101 37.2527 31.8999 35.5653Z" fill="#033875"/>
<path fill-rule="evenodd" clip-rule="evenodd" d="M45.9583 30.6293V31.8813H43.6166V37.9968H42.2197V31.8813H39.8794V30.6293H45.9583Z" fill="#033875"/>
<path fill-rule="evenodd" clip-rule="evenodd" d="M51.4669 36.9311C52.9982 36.9311 53.6752 35.7215 53.6752 34.3132C53.6752 32.9048 52.9982 31.6959 51.4669 31.6959C49.9577 31.6959 49.2581 32.9164 49.2581 34.3132C49.2581 35.7101 49.9577 36.9311 51.4669 36.9311ZM47.8101 34.3132C47.8101 32.0677 49.1868 30.4638 51.4669 30.4638C53.7572 30.4638 55.1132 32.0677 55.1132 34.3132C55.1132 36.5586 53.757 38.1625 51.4669 38.1625C49.187 38.1626 47.8101 36.5595 47.8101 34.3132Z" fill="#033875"/>
<path fill-rule="evenodd" clip-rule="evenodd" d="M59.7228 34.013H61.5709C62.3422 34.013 62.8045 33.6106 62.8045 32.8645C62.8045 32.1506 62.3421 31.7782 61.5197 31.7782H59.723L59.7228 34.013ZM64.1294 37.1382C64.1254 37.4402 64.2035 37.7375 64.3554 37.9979H62.9273C62.7921 37.7252 62.7253 37.4231 62.7332 37.1183L62.7015 36.3099C62.6613 35.3993 62.3114 35.1096 61.5316 35.1096H59.7228V37.9969H58.3359V30.6284H61.654C63.2972 30.6284 64.232 31.4367 64.232 32.7086C64.2734 33.5081 63.7693 34.2333 63.0094 34.4678C63.78 34.7164 64.0366 35.2126 64.0673 36.0412L64.1294 37.1382Z" fill="#033875"/>
<path fill-rule="evenodd" clip-rule="evenodd" d="M66.3594 35.5653H67.7264C67.7359 36.6516 68.4142 37.0346 69.5343 37.0346C70.4905 37.0346 71.0134 36.6622 71.0134 35.9687C71.0134 35.3892 70.6334 35.1411 69.5141 34.9029L68.8979 34.7798C67.3255 34.4794 66.5448 33.7345 66.5448 32.5448C66.5448 31.2926 67.541 30.4644 69.2564 30.4644C71.2294 30.4644 72.1845 31.3649 72.2365 32.8242H70.8896C70.8393 31.996 70.387 31.5927 69.2769 31.5927C68.4141 31.5927 67.9622 31.934 67.9622 32.5031C67.9622 33.093 68.3121 33.3726 69.3896 33.5896L70.0278 33.7134C71.7426 34.0551 72.4508 34.7077 72.4508 35.897C72.4508 37.3449 71.3424 38.1622 69.4925 38.1622C67.5205 38.1622 66.3699 37.2527 66.3594 35.5653Z" fill="#033875"/>
<path fill-rule="evenodd" clip-rule="evenodd" d="M29.9243 0.90094H47.3607V4.50175H33.9915V11.6455H47.0326V15.304H33.9915V22.4479H47.361V26.1075H29.9245L29.9243 0.90094Z" fill="#033875"/>
</g>
</svg>
