<svg width="104" height="31" viewBox="0 0 104 31" fill="none" xmlns="http://www.w3.org/2000/svg">
<g clip-path="url(#clip0_375_338)">
<path d="M60.8521 16.3961C60.3926 15.6453 60.9972 15.0156 60.9972 15.0156L66.3181 9.51797C66.9228 8.88828 66.0521 8.88828 66.0521 8.88828H61.094C60.2233 8.88828 59.6186 9.51797 59.6186 9.51797L54.7088 14.7492C54.1042 15.3789 54.1042 14.507 54.1042 14.507V3.07578C54.1042 2.20391 53.2335 2.20391 53.2335 2.20391H49.4847C48.6381 2.20391 48.6381 3.05156 48.6381 3.05156V26.9555C48.6381 27.8273 49.5088 27.8273 49.5088 27.8273H53.2335C54.08 27.8273 54.08 26.9797 54.08 26.9797V22.7898C54.08 21.918 54.7088 21.3125 54.7088 21.3125L56.4744 19.6656L60.8763 27.0766C61.3116 27.8273 62.1823 27.8273 62.1823 27.8273H66.8986C67.7693 27.8273 67.3098 27.0766 67.3098 27.0766L60.8521 16.3961ZM44.72 26.9555V9.73594C44.72 8.86406 43.8493 8.86406 43.8493 8.86406H40.0763C39.2056 8.86406 39.2056 9.73594 39.2056 9.73594V26.9555C39.2056 27.8273 40.0763 27.8273 40.0763 27.8273H43.8493C44.72 27.8273 44.72 26.9555 44.72 26.9555ZM44.5749 5.49766V3.02734C44.5749 3.02734 44.5749 2.17969 43.7284 2.17969H40.0521C40.0521 2.17969 39.2056 2.17969 39.2056 3.02734V5.49766C39.2056 5.49766 39.2056 6.34531 40.0521 6.34531H43.7526C43.7526 6.34531 44.5749 6.34531 44.5749 5.49766ZM35.1665 26.9555V3.1C35.1665 2.22812 34.2958 2.22813 34.2958 2.22813H30.4502C29.5795 2.22813 29.5795 3.1 29.5795 3.1V26.9555C29.5795 27.8273 30.4502 27.8273 30.4502 27.8273H34.2958C35.1665 27.8273 35.1665 26.9555 35.1665 26.9555ZM26.5321 25.9383C26.5321 25.9383 27.0158 25.3813 26.4595 24.8969L23.3879 22.2086C24.7665 20.15 25.5888 17.7039 25.5888 15.0398C25.5888 7.96797 19.8567 2.22813 12.7944 2.22813C5.73209 2.22813 0 7.96797 0 15.0398C0 22.1117 5.73209 27.8516 12.7944 27.8516C15.3823 27.8516 17.7767 27.0766 19.8084 25.7445L23.1944 28.675C23.1944 28.675 23.7507 29.1594 24.2344 28.6023L26.5321 25.9383ZM20.1712 15.0156C20.1712 19.1086 16.8577 22.4266 12.7702 22.4266C8.68279 22.4266 5.3693 19.1086 5.3693 15.0156C5.3693 10.9227 8.68279 7.60469 12.7702 7.60469C16.8577 7.62891 20.1712 10.9227 20.1712 15.0156Z" fill="#54565B"/>
<path d="M103.541 26.2043L99.4292 22.741C100.856 20.4645 101.703 17.7762 101.703 14.8941C101.703 6.78086 95.1241 0.193359 87.0217 0.193359C78.9194 0.193359 72.3408 6.78086 72.3408 14.8941C72.3408 23.0074 78.9194 29.5949 87.0217 29.5949C90.1659 29.5949 93.0924 28.602 95.4869 26.9066L99.8645 30.5879C99.8645 30.5879 100.518 31.1449 101.074 30.491L103.686 27.391C103.662 27.391 104.194 26.7371 103.541 26.2043ZM96.0431 14.8941C96.0431 19.8832 92.0041 23.9277 87.0217 23.9277C82.0394 23.9277 78.0004 19.8832 78.0004 14.8941C78.0004 9.90508 82.0394 5.86055 87.0217 5.86055C92.0041 5.86055 96.0431 9.90508 96.0431 14.8941Z" fill="#009848"/>
<path d="M81.2168 14.8947C81.2168 11.6979 83.8047 9.10645 86.9973 9.10645C90.1898 9.10645 92.7777 11.6979 92.7777 14.8947C92.7777 18.0916 90.1898 20.683 86.9973 20.683C83.8047 20.683 81.2168 18.0916 81.2168 14.8947Z" fill="#54565B"/>
</g>
<defs>
<clipPath id="clip0_375_338">
<rect width="104" height="31" fill="white"/>
</clipPath>
</defs>
</svg>
