<svg width="190" height="42" viewBox="0 0 190 42" fill="none" xmlns="http://www.w3.org/2000/svg">
<path d="M18.0207 17.2626V21.9163C18.0207 25.1675 16.7008 27.0664 13.5606 27.0664H11.2772L10.614 33.314H13.8916C19.7296 33.314 24.3274 29.0755 24.3274 22.385V17.2626H18.0207ZM173.22 17.2939H170.608C170.55 17.2939 170.526 17.3456 170.499 17.376L168.308 23.9004C168.308 23.9004 168.28 23.9848 168.28 24.0104C168.28 24.0388 168.308 24.0644 168.362 24.0644H169.971C170.03 24.0644 170.055 24.0104 170.083 23.9544L170.579 22.0837H173.245L173.742 23.9544C173.767 24.0104 173.801 24.0644 173.855 24.0644H175.37C175.422 24.0644 175.451 24.0393 175.451 24.0104C175.451 23.9854 175.42 23.9004 175.42 23.9004L173.331 17.376C173.303 17.3447 173.243 17.2939 173.218 17.2939H173.22ZM181.121 21.4508V23.0753C181.121 23.0753 180.653 23.1034 180.238 23.1034C178.946 23.1034 178.257 22.7426 178.257 20.7339C178.257 18.6441 179.001 18.3114 180.431 18.3114C181.039 18.3114 181.674 18.4203 182.089 18.5037C182.11 18.5288 182.169 18.5288 182.223 18.5288C182.223 18.5288 182.359 18.5569 182.443 18.5569C182.526 18.5569 182.551 18.5042 182.583 18.3682L182.663 17.9253C182.691 17.8453 182.691 17.7353 182.691 17.7072C182.691 17.6238 182.61 17.597 182.552 17.5406C182.332 17.4585 181.369 17.1539 180.021 17.1539C177.599 17.1539 176.578 18.0937 176.578 20.6796C176.578 23.2119 177.404 24.1775 180.186 24.1775C180.874 24.1775 181.7 24.0652 182.112 23.9854H182.09C182.585 23.8491 182.692 23.6548 182.692 23.186V20.375C182.692 20.2929 182.664 20.2678 182.585 20.2678H180.022C179.937 20.2678 179.914 20.2929 179.914 20.375V21.2024C179.914 21.3132 179.994 21.3411 180.022 21.3411L181.121 21.4508ZM171.649 18.3372H172.173L172.946 21.0073H170.88L171.649 18.3372ZM52.8228 25.2247C52.8228 21.6991 52.9575 20.2673 55.3783 20.2673C57.8044 20.2673 57.9427 21.6991 57.9427 25.2247C57.9427 28.72 57.8044 30.122 55.3783 30.122C52.9575 30.122 52.8228 28.72 52.8228 25.2247ZM47.5064 25.2247C47.5064 29.9018 48.4418 33.5116 55.3783 33.5116C62.3181 33.5116 63.2536 29.9018 63.2536 25.2247C63.2536 20.5148 62.3181 16.8792 55.3783 16.8792C48.4418 16.8792 47.5064 20.5148 47.5064 25.2247ZM147.562 20.0157V17.5681C147.562 17.0973 147.337 16.9352 146.925 16.9352H146.401C144.502 16.9352 142.466 17.1533 141.008 17.4839C139.243 17.8706 138.309 18.2012 138.309 19.2468V32.7404C138.309 32.9585 138.474 33.127 138.696 33.127H143.125C143.345 33.127 143.512 32.9583 143.512 32.7404V20.8994C143.789 20.8441 145.248 20.652 147.01 20.652C147.562 20.652 147.562 20.3488 147.562 20.0159V20.0157ZM112.071 28.2233C112.071 29.8478 111.075 30.3426 109.813 30.3426C108.822 30.3426 107.636 30.0382 107.636 30.0382V17.6492C107.636 17.4288 107.472 17.2639 107.251 17.2639H102.819C102.601 17.2639 102.434 17.4288 102.434 17.6492V28.2235C102.434 29.848 101.773 30.3428 100.562 30.3428C99.4851 30.3428 97.9729 30.0684 97.9729 30.0684V17.6494C97.9729 17.429 97.8064 17.2639 97.5891 17.2639H84.9216V12.3644C84.9216 12.0057 84.731 11.8417 84.4265 11.8417C84.3738 11.8417 84.2342 11.8698 84.0981 11.8943L80.2953 12.5567C79.9387 12.6389 79.7473 12.8859 79.7473 13.3279V17.2639H72.6421V15.53C72.6421 14.9545 72.7264 14.5678 73.028 14.2914C73.3614 14.0157 73.772 13.9357 74.4893 13.9357C74.955 13.9357 75.6441 14.0157 76.0015 14.071C76.0568 14.071 76.1138 14.0991 76.1957 14.0991C76.334 14.1242 76.4995 14.1553 76.5781 14.1553C76.7738 14.1553 76.8301 14.0157 76.8546 13.7685L77.1886 11.5651C77.1886 11.5651 77.2146 11.3986 77.2146 11.3186C77.2146 11.0992 77.1312 10.9601 76.911 10.878C76.5247 10.7663 75.0955 10.3531 72.7525 10.3531C69.0929 10.3531 67.4121 12.0057 67.4121 15.2828V17.2637H65.0704C64.8513 17.2637 64.6864 17.4287 64.6864 17.6492V20.4869C64.6864 20.7073 64.8513 20.8737 65.0704 20.8737H67.4121V32.7406C67.4121 32.9587 67.5765 33.1272 67.7973 33.1272H72.259C72.4772 33.1272 72.6423 32.9585 72.6423 32.7406V20.8737H79.7475V28.2514C79.7475 32.0233 81.6485 33.3735 85.3936 33.3735C87.5107 33.3735 88.9182 32.9306 89.2445 32.8206C89.5456 32.7104 89.6592 32.5722 89.6592 32.3258C89.6592 32.2177 89.633 32.0794 89.633 32.0794L89.2173 29.9018C89.1641 29.6534 89.0518 29.5735 88.8876 29.5735C88.8631 29.5735 88.7754 29.5735 88.6686 29.5985C88.642 29.5985 88.5856 29.6267 88.5312 29.6267C88.1708 29.6806 87.5366 29.765 86.7942 29.765C85.1969 29.765 84.9218 29.0196 84.9218 27.918V20.8986H92.7688V31.2253C92.7688 32.2407 93.7072 32.5713 95.4138 32.9579C96.7343 33.2344 98.6609 33.5369 100.123 33.5369C101.939 33.5369 103.81 33.2063 105.19 32.1586C107.055 33.2344 109.125 33.5369 111.075 33.5369C114.768 33.5369 117.274 32.6554 117.274 28.9656V17.6485C117.274 17.4279 117.109 17.263 116.889 17.263H112.456C112.235 17.263 112.071 17.4279 112.071 17.6485V28.2233ZM153.838 24.3131V24.0389C153.838 23.6002 153.863 22.5786 153.974 21.9478C154.192 20.8996 154.772 20.2125 156.37 20.2125C157.857 20.2125 158.545 20.7894 158.82 21.7532C158.985 22.3322 158.985 23.2676 158.985 23.8725V24.3133L153.838 24.3131ZM129.36 30.1222C129.196 30.1784 128.314 30.3988 127.186 30.3988C126.139 30.3988 124.598 30.1784 124.598 28.2514C124.598 26.5167 125.48 26.2963 126.632 26.1041L129.36 25.6634V30.1222ZM13.6135 23.1573V17.8708C13.6135 14.5676 14.9939 12.998 18.0754 12.998H20.3039L20.9659 6.74609H17.4683C11.356 6.74609 7.30762 11.2624 7.30762 17.4021V23.1573H13.6135ZM37.8153 26.9553C39.2467 27.234 39.8804 27.3981 39.8804 28.6618C39.8804 29.9018 38.7795 30.2065 37.759 30.2065C36.1908 30.2065 34.3191 29.7657 33.6026 29.5735H33.6286C33.6026 29.5735 33.5724 29.5484 33.5473 29.5484C33.4363 29.517 33.3271 29.4923 33.2463 29.4923C33.108 29.4923 32.9697 29.6004 32.9382 29.8769L32.6133 31.8318C32.5823 31.9701 32.5559 32.1603 32.5559 32.2424C32.5559 32.4368 32.637 32.5188 32.8574 32.6268C33.4652 32.8795 35.9423 33.4844 38.5044 33.4844C42.275 33.4844 45.1373 32.1603 45.1373 28.2243C45.1373 24.4524 42.9071 23.7372 40.7627 23.3506L40.3178 23.2685C39.0833 23.0479 38.0066 22.8277 38.0066 21.5596C38.0066 20.2933 39.3015 20.1312 40.211 20.1312C41.3949 20.1312 42.6595 20.3495 43.2958 20.4877C43.6515 20.572 43.7353 20.572 43.8445 20.572C43.9842 20.572 44.1738 20.4316 44.2293 20.2933C44.3403 19.6323 44.5065 18.9462 44.6159 18.2842C44.6159 18.2842 44.642 18.1459 44.642 18.0638C44.642 17.7355 44.5067 17.5972 44.0665 17.4847C43.2126 17.2643 41.506 16.8799 39.3851 16.8799C36.7448 16.8799 32.7503 17.3207 32.7503 21.9182C32.7503 25.9386 35.4464 26.5175 37.5117 26.9019L37.8153 26.9553ZM134.539 21.6431C134.539 19.9348 134.012 18.6139 132.553 17.7887C131.481 17.1837 129.968 16.8792 127.843 16.8792C124.543 16.8792 121.593 17.7606 121.019 18.0068C120.827 18.0935 120.632 18.2012 120.632 18.4203V18.5297C120.632 18.558 120.66 18.5859 120.66 18.6141L121.182 20.8996C121.21 21.0626 121.32 21.12 121.459 21.12C121.514 21.12 121.593 21.12 121.68 21.0919C122.34 20.8994 124.761 20.2674 126.663 20.2674C127.598 20.2674 128.313 20.3486 128.697 20.5409C129.277 20.8173 129.359 21.3124 129.359 22.1097V22.7988L124.155 23.6261C122.175 23.9265 119.613 24.5335 119.613 28.3031C119.613 32.9889 123.354 33.5116 127.101 33.5116C128.891 33.5116 130.324 33.3993 131.534 33.127C133.517 32.6562 134.538 32.2716 134.538 29.9578L134.539 21.6431ZM148.523 25.3047C148.523 31.4746 151.304 33.5118 157.223 33.5118C159.869 33.5118 161.903 32.8485 162.868 32.5179C163.169 32.4098 163.283 32.1875 163.283 31.9952C163.283 31.9391 163.283 31.8873 163.255 31.7748L162.814 29.958V29.9831C162.703 29.5985 162.536 29.5165 162.317 29.5165C162.205 29.5165 162.067 29.5478 161.957 29.5725H161.989C161.215 29.7929 159.786 30.2054 158.161 30.2054C156.811 30.2054 155.872 30.0954 155.183 29.7346C154.389 29.324 153.891 28.4988 153.891 27.2589H163.256C163.887 27.2589 163.999 26.8181 163.999 26.4033V24.9453C163.999 22.1929 163.529 20.0742 162.401 18.7499C161.215 17.5955 159.234 16.8782 156.371 16.8782C150.532 16.8782 148.524 19.1626 148.524 25.3038" fill="#011F3D"/>
</svg>
