<svg width="208" height="29" viewBox="0 0 208 29" fill="none" xmlns="http://www.w3.org/2000/svg">
<g clip-path="url(#clip0_40_3363)">
<path d="M92.404 16.261C92.404 14.6372 92.8633 13.6977 94.3337 13.6977L95.254 13.6112V11.6473H93.6913C92.4955 11.6473 91.5761 12.0739 90.9329 12.6716C90.1973 13.4416 89.9219 14.6372 89.9219 16.1754V21.3021H92.404V16.261ZM100.953 13.6968C99.4819 13.6968 99.0226 14.6372 99.0226 16.261V21.3021H96.5404V16.1754C96.5404 14.6372 96.8167 13.4416 97.5514 12.6716C98.1955 12.0739 99.1141 11.6465 100.309 11.6465H101.872V13.612L100.953 13.6968ZM140.94 13.6968C139.469 13.6968 139.01 14.6372 139.01 16.261V21.3021H136.528V16.1754C136.528 14.6372 136.804 13.4416 137.539 12.6716C138.183 12.0739 139.101 11.6465 140.297 11.6465H141.86V13.612L140.94 13.6968Z" fill="#003F2E"/>
<path fill-rule="evenodd" clip-rule="evenodd" d="M82.8433 21.5581C84.9585 21.5581 86.3364 20.9603 87.4398 19.5078L85.4178 18.397C84.7737 19.0804 84.039 19.3365 82.9356 19.3365C81.4645 19.3365 80.362 18.5674 80.0865 17.1997H88.1754V16.6875C88.1754 13.7825 86.061 11.6465 82.8433 11.6465C79.6264 11.6465 77.6035 14.0394 77.6035 16.6027C77.6035 19.3365 79.6264 21.5581 82.8441 21.5581H82.8433ZM82.8433 13.6977C84.222 13.6977 85.2339 14.3811 85.6017 15.4919H80.1781C80.6374 14.2955 81.5568 13.6968 82.8433 13.6968V13.6977ZM110.789 20.3617C109.87 21.1316 108.95 21.5581 107.663 21.5581C105.089 21.5581 102.884 19.5078 102.884 16.6027C102.884 13.6977 104.998 11.6465 107.663 11.6465C108.858 11.6465 109.961 12.0739 110.789 12.9286V11.9034H113.271V21.3012H110.789V20.3608V20.3617ZM105.457 16.6027C105.457 18.2257 106.561 19.4222 108.123 19.4222C109.686 19.4222 110.881 18.3113 110.881 16.6019C110.881 14.9789 109.686 13.8681 108.123 13.8681C106.468 13.8681 105.457 15.1502 105.457 16.6019V16.6027ZM129.358 21.5581C132.392 21.5581 134.689 19.3365 134.689 16.6027C134.689 13.869 132.3 11.7321 129.358 11.6465C126.6 11.6465 124.118 13.7833 124.118 16.6027C124.118 19.4222 126.416 21.5581 129.358 21.5581ZM129.358 19.3365C127.795 19.3365 126.692 18.2257 126.692 16.6027C126.692 15.0646 127.795 13.9538 129.358 13.869C131.013 13.869 132.116 14.9789 132.116 16.6027C132.116 18.3114 130.92 19.3365 129.358 19.3365ZM168.426 20.3617C167.507 21.1316 166.588 21.5581 165.3 21.5581C162.727 21.5581 160.521 19.5078 160.521 16.6027C160.521 13.6977 162.635 11.6465 165.3 11.6465C166.496 11.6465 167.599 12.0739 168.426 12.9286V11.9034H170.909V21.3012H168.426V20.3608V20.3617ZM163.003 16.6027C163.003 18.2257 164.105 19.4222 165.668 19.4222C167.231 19.4222 168.426 18.3113 168.426 16.6019C168.426 14.9789 167.231 13.8681 165.668 13.8681C164.105 13.8681 163.003 15.1502 163.003 16.6019V16.6027Z" fill="#003F2E"/>
<path d="M183.687 10.5353C184.605 10.5353 185.341 9.85181 185.341 8.99794C185.341 8.14321 184.605 7.45976 183.687 7.45976C182.767 7.45976 182.032 8.14321 182.032 8.9123C182.032 9.76617 182.767 10.5353 183.687 10.5353ZM184.973 11.9878H182.491V21.3873H184.973V11.9878ZM80.1783 5.83594H66.1133V8.14321H71.8123V21.3016H74.3869V8.14234H80.1783V5.83594Z" fill="#003F2E"/>
<path fill-rule="evenodd" clip-rule="evenodd" d="M191.958 21.5581C194.992 21.5581 197.29 19.3365 197.29 16.6027C197.29 13.869 194.9 11.7321 191.958 11.6465C189.201 11.6465 186.719 13.7833 186.719 16.6027C186.719 19.4222 189.017 21.5581 191.958 21.5581ZM191.958 19.3365C190.396 19.3365 189.292 18.2257 189.292 16.6027C189.292 15.0646 190.396 13.9538 191.958 13.869C193.614 13.869 194.716 14.9789 194.716 16.6027C194.716 18.3114 193.521 19.3365 191.958 19.3365Z" fill="#003F2E"/>
<path d="M180.652 13.9533V11.903H177.802V7.45886L175.32 8.14231V11.9869H172.655V14.0372H175.32V18.823C175.32 20.3604 175.596 21.5568 176.331 22.3259C176.975 22.9237 177.894 23.3511 179.09 23.3511H180.652V21.3007H179.733C178.262 21.3007 177.802 20.3604 177.802 18.7374V13.9524H180.652V13.9533ZM123.107 6.17849V8.14231H122.187C120.533 8.14231 120.257 8.91226 120.257 10.7065V11.903H123.107V13.9533H120.257V23.0959L117.775 23.7793V14.1246H115.109V12.0743H117.775V10.7056C117.775 9.08182 118.051 7.97188 118.786 7.20192C119.338 6.51848 120.349 6.17676 121.544 6.17676H123.107V6.17849ZM152.615 21.3007H150.133V16.7727C150.133 14.9785 149.765 13.8677 148.386 13.8677C147.099 13.8677 146.18 14.808 146.18 16.7727V21.3016H143.698V11.7317H146.18V13.0138C147.007 12.159 148.11 11.7317 149.305 11.7317C150.593 11.7317 151.604 12.2447 152.247 13.4403C153.166 12.3295 154.085 11.7317 155.648 11.7317C156.752 11.7317 157.763 12.159 158.315 12.8425C158.958 13.6116 159.049 14.6367 159.049 15.9188V21.3016H156.568V16.1749C156.568 14.6367 156.016 13.8677 154.821 13.8677C153.534 13.8677 152.615 14.808 152.615 16.6879V21.3016V21.3007ZM204.185 11.7325C203.082 11.7325 202.254 12.159 201.243 12.9281V11.903H198.761V21.3007H201.243V17.3705C201.243 17.2511 201.242 17.1335 201.241 17.0175C201.23 16.2156 201.221 15.4785 201.703 14.8072C202.163 14.2085 202.714 13.8668 203.449 13.8668C205.013 13.8668 205.196 14.9776 205.196 16.8575V21.3007H207.678V14.9776C207.678 12.9273 206.023 11.7308 204.185 11.7308V11.7325Z" fill="#003F2E"/>
<path d="M58.7353 20.1494C52.2285 16.2896 45.0158 13.7756 37.5231 12.7561V5.83224C37.5231 3.95481 37.1436 2.42911 36.2602 1.60684C35.6293 0.786951 34.3664 0.316406 32.8509 0.316406H28.5582V2.78083H32.0943C33.8612 2.78083 34.4933 3.95481 34.4933 5.94988V12.4044C32.9778 12.2868 31.3366 12.1692 29.8211 12.1692C28.5582 12.1692 27.4222 12.1692 26.1592 12.2868V0.316406L23.0038 1.13748V12.5209C15.1355 13.436 7.55623 16.0383 0.78125 20.1506C7.79903 16.8938 15.3094 14.8317 23.0038 14.049V23.3196C23.0038 25.1971 23.382 26.7228 24.2655 27.545C25.0232 28.3649 26.1593 28.8355 27.6747 28.8355H32.0943V26.3711H28.5582C26.7913 26.3711 26.1592 25.1971 26.1592 23.202V13.8137C27.4222 13.696 28.5582 13.696 29.8211 13.696C30.6583 13.696 31.4623 13.7269 32.2509 13.7566C33.0074 13.7852 33.7498 13.8137 34.4921 13.8137V28.8343L37.6488 28.0132V14.1642C44.9589 14.9806 52.0839 17.003 58.7353 20.1494Z" fill="#003F2E"/>
</g>
<defs>
<clipPath id="clip0_40_3363">
<rect width="208" height="29" fill="white"/>
</clipPath>
</defs>
</svg>
